Motion_sv03_j
version=1
nRows=9
nColumns=43
inDegrees=yes
endheader
time	pelvis_tilt	pelvis_list	pelvis_rotation	pelvis_tx	pelvis_ty	pelvis_tz	hip_flexion_r	hip_adduction_r	hip_rotation_r	knee_angle_r	ankle_angle_r	subtalar_angle_r	mtp_angle_r	hip_flexion_l	hip_adduction_l	hip_rotation_l	knee_angle_l	ankle_angle_l	subtalar_angle_l	mtp_angle_l	lumbar_extension	lumbar_bending	lumbar_rotation	neck_flexion	neck_lateral_bending	neck_rotation	arm_flex_r	arm_add_r	arm_rot_r	elbow_flex_r	pro_sup_r	wrist_flex_r	wrist_dev_r	hand_finger_flex_r	arm_flex_l	arm_add_l	arm_rot_l	elbow_flex_l	pro_sup_l	wrist_flex_l	wrist_dev_l	hand_finger_flex_l
      0.96500000	      4.03394418	    -10.60436643	    -78.15155862	     -0.10176035	      0.96946753	      0.06822078	     -3.83741503	     -4.29375853	    -18.24123771	    -13.63109121	     10.03142502	      4.93378262	     -1.81090456	     12.31092718	     -7.01956983	      3.05396663	    -36.85259638	      1.13123214	     17.02479103	     15.41867547	    -33.33219033	      5.97048638	      1.27938463	    -31.65817825	    -19.39468928	     26.08876599	    -24.64600235	    -22.80521304	    -57.30152227	    111.93044971	     71.38451099	      8.14168569	    -11.60149057	    -15.55159358	    -26.71325581	    -16.96912461	    -57.84904428	    117.41944714	     95.30601909	     -9.28409778	      0.75610091	     -6.75378429
      0.96750000	      4.12434615	    -10.60449852	    -78.07906721	     -0.10220449	      0.96936479	      0.06720860	     -3.77258420	     -4.36861889	    -18.28154271	    -13.66812693	      9.94562592	      4.88135392	     -1.83202050	     12.62433777	     -6.94679041	      3.09519389	    -37.68779568	      1.90124742	     16.33549032	     15.45432052	    -33.45672107	      5.85461841	      1.33471052	    -31.65203394	    -19.10863857	     25.86662863	    -24.62801246	    -22.69231221	    -56.78767586	    111.79182087	     71.58494199	      8.16542704	    -11.53910020	    -15.58972976	    -26.81884576	    -16.76347764	    -57.41135562	    117.77149595	     95.50179435	     -9.25178127	      0.68828036	     -6.64512347
      0.97000000	      4.12779754	    -10.48335195	    -77.95627169	     -0.10222185	      0.96922037	      0.06615393	     -3.56031415	     -4.40406714	    -18.32365805	    -13.73893582	      9.93407644	      4.79170483	     -1.85201826	     13.07379276	     -6.82622733	      3.39993842	    -38.47767989	      2.42881637	     15.21819061	     15.38541204	    -33.41511667	      5.87072610	      1.36987424	    -31.68492722	    -19.07663143	     25.74971713	    -24.59278526	    -22.66301812	    -56.29608762	    111.50857606	     71.93075698	      8.11220951	    -11.50580102	    -15.69494473	    -26.90576692	    -16.51459897	    -56.83288132	    118.04289943	     95.88184829	     -9.28138283	      0.68969242	     -6.46390845
      0.97250000	      4.25231528	    -10.55135121	    -77.88641144	     -0.10259565	      0.96950626	      0.06499287	     -3.56294652	     -4.50384228	    -18.36708687	    -13.77985718	      9.89971676	      4.75945487	     -1.86082701	     13.26091430	     -6.78639375	      3.36433274	    -39.15773617	      2.54910812	     15.08065617	     15.38943446	    -33.63395079	      5.78743571	      1.46630793	    -31.68443791	    -19.16860943	     25.73947970	    -24.55985863	    -22.57648853	    -55.84722508	    111.34412761	     72.01359820	      8.16564232	    -11.41919439	    -15.69118862	    -26.88182061	    -16.36548683	    -56.24806728	    118.24331638	     95.93528298	     -9.15715602	      0.65448348	     -6.40272748
      0.97500000	      4.37028668	    -10.61393453	    -77.81750599	     -0.10293669	      0.96969978	      0.06393602	     -3.57208798	     -4.60384710	    -18.41390404	    -13.81566666	      9.84592715	      4.72800607	     -1.87314440	     13.47796139	     -6.74357394	      3.32941165	    -39.94011057	      2.83280787	     14.77378409	     15.40814690	    -33.83485727	      5.69093483	      1.55403432	    -31.69027485	    -19.16261689	     25.67949532	    -24.54012604	    -22.50036176	    -55.40412418	    111.15868739	     72.12734501	      8.20092622	    -11.32165758	    -15.69631038	    -26.91360065	    -16.20211213	    -55.70025334	    118.47690163	     96.00882405	     -9.04875086	      0.61132023	     -6.34262810
      0.97750000	      4.28262773	    -10.20370719	    -77.54431955	     -0.10262802	      0.96892738	      0.06269858	     -3.00637810	     -4.62265332	    -18.57340172	    -13.97542660	      9.83331061	      4.64792206	     -1.91358484	     14.38589808	     -6.47536836	      4.05437748	    -40.93765942	      3.27258570	     12.59968328	     15.12445991	    -33.43436857	      5.85131819	      1.41792451	    -31.88211714	    -19.12906579	     25.55611244	    -24.51740733	    -22.46116007	    -54.88792530	    110.98476995	     72.91468520	      8.08028976	    -11.32966624	    -15.87741620	    -27.04043465	    -15.88771387	    -55.16488853	    118.72783570	     96.70448894	     -9.30222193	      0.64976439	     -6.05239812
      0.98000000	      4.40346282	    -10.25289768	    -77.48796074	     -0.10297178	      0.96914821	      0.06165622	     -3.00908129	     -4.72530931	    -18.63505056	    -13.99155429	      9.79695076	      4.61883888	     -1.92329519	     14.54896613	     -6.44571771	      4.00056768	    -41.62349717	      3.49200421	     12.46637742	     15.13454433	    -33.62242330	      5.74149040	      1.51793774	    -31.84711343	    -19.13109017	     25.50796425	    -24.49438927	    -22.39712179	    -54.47405338	    110.77437255	     73.00549603	      8.14053463	    -11.22457435	    -15.86779404	    -27.08224048	    -15.74175008	    -54.59145492	    118.93161568	     96.74340846	     -9.17389741	      0.60063150	     -5.98293447
      0.98250000	      4.51144433	    -10.31833457	    -77.43559179	     -0.10331548	      0.96932048	      0.06062113	     -3.02193612	     -4.81470980	    -18.68254376	    -14.01997269	      9.75009080	      4.60221524	     -1.93375551	     14.73706370	     -6.42071840	      3.96486178	    -42.41301921	      3.80720965	     12.16309371	     15.15157929	    -33.82095455	      5.64362979	      1.61733546	    -31.85653509	    -19.11342391	     25.44428682	    -24.45383156	    -22.32040662	    -54.06196261	    110.56999092	     73.13115427	      8.19981348	    -11.10801036	    -15.85930138	    -27.12867281	    -15.59325245	    -54.05191009	    119.16092513	     96.79387059	     -9.06232641	      0.54593356	     -5.91891857
      0.98500000	      4.39130039	    -10.01716986	    -77.21851449	     -0.10314658	      0.96871544	      0.05953077	     -2.59253576	     -4.77389052	    -18.85096374	    -14.12288008	      9.71481872	      4.62830344	     -1.96367096	     15.46911466	     -6.24631937	      4.56318211	    -43.37835809	      4.21047509	     10.04004614	     14.83612883	    -33.52579856	      5.82280266	      1.55177917	    -32.05055853	    -19.07995220	     25.31801810	    -24.40374248	    -22.25963358	    -53.68054743	    110.39570132	     74.07000695	      8.33419580	    -10.97740831	    -15.92562467	    -27.26714312	    -15.29305916	    -53.52529908	    119.37399181	     97.27660651	     -9.28854020	      0.50981955	     -5.61595303
